<svg width="132" height="24" viewBox="0 0 132 24" fill="none" xmlns="http://www.w3.org/2000/svg">
<path d="M39.9074 20.9749C37.7784 20.9749 36 19.8201 36 17.1339C36 14.4226 38.1541 12.9916 41.5856 12.9916H43.7898V12.4393C43.7898 10.5063 42.6126 9.77824 41.1097 9.77824C39.6069 9.77824 38.7552 10.6318 38.3545 11.8368L36.501 11.41C36.8516 9.27615 38.7552 7.9205 41.1097 7.9205C43.865 7.9205 45.8438 9.57741 45.8438 12.6653V20.7741H44.2157L43.8399 18.9414C43.0885 20.1213 41.8361 20.9749 39.9074 20.9749ZM40.2832 19.1172C41.8361 19.1172 43.7898 18.0126 43.7898 15.1757V14.7741H41.6608C39.2813 14.7741 38.1541 15.6276 38.1541 17.1088C38.1541 18.4142 38.9807 19.1172 40.2832 19.1172Z" fill="#FFFFFF"/>
<path d="M51.0341 20.7741H48.9551V8.12134H51.0341V10.3054C51.8356 8.77406 53.1131 7.9205 54.7412 7.9205C55.4174 7.9205 55.9434 8.07113 56.5195 8.29707L56.0937 10.2301C55.5928 9.95397 55.0918 9.80335 54.4656 9.80335C52.587 9.80335 51.0341 11.7615 51.0341 16.0042V20.7741Z" fill="#FFFFFF"/>
<path d="M63.1386 20.9749C59.2812 20.9749 57.3526 17.8368 57.3526 14.4477C57.3526 11.0586 59.2812 7.9205 63.1386 7.9205C65.7185 7.9205 67.5219 9.07531 68.4237 11.4603L66.5701 12.1883C65.9439 10.6569 64.8418 9.77824 63.1386 9.77824C60.6589 9.77824 59.5067 11.8619 59.5067 14.4477C59.5067 17.0084 60.6589 19.1172 63.1386 19.1172C64.8418 19.1172 65.8938 18.2636 66.5701 16.7071L68.4237 17.4351C67.5219 19.7699 65.7185 20.9749 63.1386 20.9749Z" fill="#FFFFFF"/>
<path d="M72.9994 20.7741H70.9204V3H72.9994V10.6569C73.851 8.84937 75.5793 7.9205 77.3326 7.9205C79.7873 7.9205 81.2651 9.32636 81.2651 11.9623V20.7741H79.2112V12.4644C79.2112 10.7322 78.4097 9.77824 76.8317 9.77824C74.8028 9.77824 72.9994 11.8117 72.9994 15.4017V20.7741Z" fill="#FFFFFF"/>
<path d="M86.7458 20.7741H84.6669V8.12134H86.7458V20.7741Z" fill="#FFFFFF"/>
<path d="M94.5245 20.9749C92.3454 20.9749 90.8675 19.7197 90.8675 16.9079V9.97908H88.7385V8.12134H90.8675V4.33054L92.9465 3V8.12134H96.3279V9.97908H92.9465V17.0586C92.9465 18.5146 93.6228 19.1172 94.6998 19.1172C95.1758 19.1172 95.6767 19.0418 96.1526 18.7657L96.6786 20.523C96.0274 20.8494 95.2509 20.9749 94.5245 20.9749Z" fill="#FFFFFF"/>
<path d="M109.035 13.8954V14.7741H99.7421C99.8423 17.2845 101.17 19.1172 103.449 19.1172C105.228 19.1172 106.204 18.364 107.056 16.6569L108.809 17.41C107.607 19.8954 105.954 20.9749 103.399 20.9749C99.7421 20.9749 97.6381 17.9121 97.6381 14.4477C97.6381 10.9331 99.717 7.9205 103.399 7.9205C106.956 7.9205 109.035 10.6318 109.035 13.8954ZM99.8673 12.9916H106.931C106.63 11.1088 105.478 9.77824 103.399 9.77824C101.746 9.77824 100.318 10.8326 99.8673 12.9916Z" fill="#FFFFFF"/>
<path d="M116.975 20.9749C113.118 20.9749 111.189 17.8368 111.189 14.4477C111.189 11.0586 113.118 7.9205 116.975 7.9205C119.555 7.9205 121.358 9.07531 122.26 11.4603L120.407 12.1883C119.78 10.6569 118.678 9.77824 116.975 9.77824C114.495 9.77824 113.343 11.8619 113.343 14.4477C113.343 17.0084 114.495 19.1172 116.975 19.1172C118.678 19.1172 119.73 18.2636 120.407 16.7071L122.26 17.4351C121.358 19.7699 119.555 20.9749 116.975 20.9749Z" fill="#FFFFFF"/>
<path d="M129.16 20.9749C126.981 20.9749 125.503 19.7197 125.503 16.9079V9.97908H123.374V8.12134H125.503V4.33054L127.582 3V8.12134H130.964V9.97908H127.582V17.0586C127.582 18.5146 128.258 19.1172 129.336 19.1172C129.811 19.1172 130.312 19.0418 130.788 18.7657L131.314 20.523C130.663 20.8494 129.887 20.9749 129.16 20.9749Z" fill="#FFFFFF"/>
<path d="M84 4.28572L85.6286 5.9142L87.2571 4.28572L85.6286 2.65723L84 4.28572Z" fill="#FFFFFF"/>
<path fill-rule="evenodd" clip-rule="evenodd" d="M25.5367 24L27.0945 15.7704L21.0176 1.34165L16.4466 0L15.0313 1.48537L24.1852 24H25.5367ZM1.56596 24L0 15.7704L6.10867 1.34165L10.7036 2.79162e-06L12.1263 1.48537L2.92445 24H1.56596Z" fill="#FFFFFF"/>
</svg>
