<svg width="110" height="20" viewBox="0 0 110 20" fill="none" xmlns="http://www.w3.org/2000/svg">
<g id="Frame 1000005841">
<g id="Group 3343">
<g id="architect">
<path d="M33.2562 17.4791C31.482 17.4791 30 16.5167 30 14.2782C30 12.0188 31.7951 10.8264 34.6547 10.8264H36.4915V10.3661C36.4915 8.75523 35.5105 8.14853 34.2581 8.14853C33.0057 8.14853 32.296 8.85983 31.9621 9.86402L30.4175 9.50837C30.7097 7.73012 32.296 6.60042 34.2581 6.60042C36.5541 6.60042 38.2031 7.98117 38.2031 10.5544V17.3117H36.8464L36.5333 15.7845C35.9071 16.7678 34.8634 17.4791 33.2562 17.4791ZM33.5693 15.931C34.8634 15.931 36.4915 15.0105 36.4915 12.6464V12.3117H34.7173C32.7344 12.3117 31.7951 13.023 31.7951 14.2573C31.7951 15.3452 32.4839 15.931 33.5693 15.931Z" fill="white"/>
<path d="M42.5284 17.3117H40.7959V6.76778H42.5284V8.58786C43.1963 7.31171 44.2609 6.60042 45.6176 6.60042C46.1812 6.60042 46.6195 6.72594 47.0996 6.91423L46.7448 8.5251C46.3273 8.29498 45.9098 8.16946 45.388 8.16946C43.8225 8.16946 42.5284 9.80125 42.5284 13.3368V17.3117Z" fill="white"/>
<path d="M52.6155 17.4791C49.401 17.4791 47.7938 14.864 47.7938 12.0397C47.7938 9.21548 49.401 6.60042 52.6155 6.60042C54.7654 6.60042 56.2683 7.56276 57.0197 9.55021L55.4751 10.1569C54.9533 8.88075 54.0349 8.14853 52.6155 8.14853C50.5491 8.14853 49.5889 9.88494 49.5889 12.0397C49.5889 14.1736 50.5491 15.931 52.6155 15.931C54.0349 15.931 54.9115 15.2197 55.4751 13.9226L57.0197 14.5293C56.2683 16.4749 54.7654 17.4791 52.6155 17.4791Z" fill="white"/>
<path d="M60.8328 17.3117H59.1003V2.5H60.8328V8.88075C61.5425 7.37448 62.9827 6.60042 64.4438 6.60042C66.4894 6.60042 67.7209 7.77197 67.7209 9.96862V17.3117H66.0093V10.387C66.0093 8.94351 65.3414 8.14853 64.0264 8.14853C62.3357 8.14853 60.8328 9.84309 60.8328 12.8347V17.3117Z" fill="white"/>
<path d="M72.2882 17.3117H70.5557V6.76778H72.2882V17.3117Z" fill="white"/>
<path d="M78.7704 17.4791C76.9545 17.4791 75.7229 16.4331 75.7229 14.09V8.3159H73.9487V6.76778H75.7229V3.60879L77.4554 2.5V6.76778H80.2733V8.3159H77.4554V14.2155C77.4554 15.4289 78.019 15.931 78.9165 15.931C79.3131 15.931 79.7306 15.8682 80.1272 15.6381L80.5655 17.1025C80.0228 17.3745 79.3757 17.4791 78.7704 17.4791Z" fill="white"/>
<path d="M90.8623 11.5795V12.3117H83.1184C83.2019 14.4038 84.3081 15.931 86.2076 15.931C87.6896 15.931 88.5036 15.3033 89.2133 13.8808L90.6744 14.5084C89.6725 16.5795 88.2949 17.4791 86.1658 17.4791C83.1184 17.4791 81.365 14.9268 81.365 12.0397C81.365 9.11088 83.0975 6.60042 86.1658 6.60042C89.1298 6.60042 90.8623 8.85983 90.8623 11.5795ZM83.2227 10.8264H89.109C88.8585 9.25732 87.8983 8.14853 86.1658 8.14853C84.7882 8.14853 83.5985 9.0272 83.2227 10.8264Z" fill="white"/>
<path d="M97.4792 17.4791C94.2648 17.4791 92.6575 14.864 92.6575 12.0397C92.6575 9.21548 94.2648 6.60042 97.4792 6.60042C99.6292 6.60042 101.132 7.56276 101.883 9.55021L100.339 10.1569C99.817 8.88075 98.8986 8.14853 97.4792 8.14853C95.4128 8.14853 94.4526 9.88494 94.4526 12.0397C94.4526 14.1736 95.4128 15.931 97.4792 15.931C98.8986 15.931 99.7753 15.2197 100.339 13.9226L101.883 14.5293C101.132 16.4749 99.6292 17.4791 97.4792 17.4791Z" fill="white"/>
<path d="M107.633 17.4791C105.818 17.4791 104.586 16.4331 104.586 14.09V8.3159H102.812V6.76778H104.586V3.60879L106.318 2.5V6.76778H109.136V8.3159H106.318V14.2155C106.318 15.4289 106.882 15.931 107.78 15.931C108.176 15.931 108.594 15.8682 108.99 15.6381L109.429 17.1025C108.886 17.3745 108.239 17.4791 107.633 17.4791Z" fill="white"/>
</g>
<path id="Architect" d="M70.3574 3.57192L71.7146 4.92899L73.0717 3.57192L71.7146 2.21484L70.3574 3.57192Z" fill="white"/>
<path id="Union" fill-rule="evenodd" clip-rule="evenodd" d="M1.30497 20L0 13.142L5.09055 1.11804L8.91966 0L10.1053 1.23781L2.43704 20H1.30497ZM21.2819 20L22.58 13.142L17.516 1.11804L13.7068 0L12.5273 1.23781L20.1556 20H21.2819Z" fill="white"/>
</g>
</g>
</svg>
