<?xml version="1.0" encoding="UTF-8"?>
<svg id="Layer_1" data-name="Layer 1" xmlns="http://www.w3.org/2000/svg" xmlns:xlink="http://www.w3.org/1999/xlink" version="1.1" viewBox="0 0 16 16">
  <g>
    <path fill="#fff" d="M-416.6,157.6l-33.8-58.5h-75.1l-39.3,90.3h-42.1l-18.4-31.9,18.4-31.8h21.3l-18.1,42.5,4.5,7.8h21.1l31.9-74.9v-18.1h56.3v-26.6h-92.9v26.6h10v12.7l-1.4,3.3h-48l-33.8,58.5,33.8,58.5h76.1l38.3-90.3h42.1l18.4,31.8-15,26-19-44.5h-15.9l-6.5,15.4,31.9,74.9h-157.9l-3.4,8.1,12.2,18.5h169.3l12.2-18.5-9.9-23.2,32.7-56.7h0Z"/>
    <path fill="#fff" d="M-553,8.3l-17.1,17.1,17.1,17.1,17.1-17.1-17.1-17.1h0Z"/>
    <path fill="#fff" d="M-515.1,0l-12.7,12.7,12.7,12.7,12.7-12.7-12.7-12.7Z"/>
  </g>
  <g>
    <path fill="#fff" d="M-265.7,78.8l-16.9-29.2h-37.5l-19.6,45.2h-21l-9.2-15.9,9.2-15.9h10.6l-9.1,21.3,2.3,3.9h10.5l16-37.4v-9.1h28.1v-13.3h-46.4v13.3h5v6.3l-.7,1.7h-24l-16.9,29.2,16.9,29.2h38l19.1-45.2h21l9.2,15.9-7.5,13-9.5-22.3h-7.9l-3.2,7.7,16,37.5h-79l-1.7,4,6.1,9.3h84.6l6.1-9.3-5-11.6,16.4-28.3h0Z"/>
    <path fill="#fff" d="M-333.9,4.1l-8.6,8.6,8.6,8.6,8.6-8.6-8.6-8.6h0Z"/>
    <path fill="#fff" d="M-315,0l-6.4,6.4,6.4,6.4,6.4-6.4-6.4-6.4Z"/>
  </g>
  <g>
    <path fill="#fff" d="M-180.9,39.4l-8.4-14.6h-18.8l-9.8,22.6h-10.5l-4.6-8,4.6-8h5.3l-4.5,10.6,1.1,2h5.3l8-18.7v-4.5h14.1v-6.7h-23.2v6.7h2.5v3.2l-.4.8h-12l-8.4,14.6,8.4,14.6h19l9.6-22.6h10.5l4.6,8-3.8,6.5-4.7-11.1h-4l-1.6,3.9,8,18.7h-39.5l-.9,2,3.1,4.6h42.3l3.1-4.6-2.5-5.8,8.2-14.2h0Z"/>
    <path fill="#fff" d="M-215,2.1l-4.3,4.3,4.3,4.3,4.3-4.3-4.3-4.3h0Z"/>
    <path fill="#fff" d="M-205.5,0l-3.2,3.2,3.2,3.2,3.2-3.2-3.2-3.2Z"/>
  </g>
  <g>
    <path fill="#fff" d="M-113.7,29.5l-6.3-11h-14.1l-7.4,16.9h-7.9l-3.4-6,3.4-6h4l-3.4,8,.8,1.5h4l6-14v-3.4h10.6v-5h-17.4v5h1.9v2.4l-.3.6h-9l-6.3,11,6.3,11h14.3l7.2-16.9h7.9l3.4,6-2.8,4.9-3.6-8.4h-3l-1.2,2.9,6,14h-29.6l-.6,1.5,2.3,3.5h31.7l2.3-3.5-1.9-4.4,6.1-10.6h0Z"/>
    <path fill="#fff" d="M-139.3,1.6l-3.2,3.2,3.2,3.2,3.2-3.2-3.2-3.2h0Z"/>
    <path fill="#fff" d="M-132.2,0l-2.4,2.4,2.4,2.4,2.4-2.4-2.4-2.4Z"/>
  </g>
  <g>
    <path fill="#fff" d="M-62.5,19.7l-4.2-7.3h-9.4l-4.9,11.3h-5.3l-2.3-4,2.3-4h2.7l-2.3,5.3.6,1h2.6l4-9.4v-2.3h7v-3.3h-11.6v3.3h1.2v1.6l-.2.4h-6l-4.2,7.3,4.2,7.3h9.5l4.8-11.3h5.3l2.3,4-1.9,3.3-2.4-5.6h-2l-.8,1.9,4,9.4h-19.7l-.4,1,1.5,2.3h21.2l1.5-2.3-1.2-2.9,4.1-7.1h0Z"/>
    <path fill="#fff" d="M-79.5,1l-2.1,2.1,2.1,2.1,2.1-2.1-2.1-2.1h0Z"/>
    <path fill="#fff" d="M-74.8,0l-1.6,1.6,1.6,1.6,1.6-1.6-1.6-1.6Z"/>
  </g>
  <g>
    <path fill="#fff" d="M-19.5,14.8l-3.2-5.5h-7l-3.7,8.5h-3.9l-1.7-3,1.7-3h2l-1.7,4,.4.7h2l3-7v-1.7h5.3v-2.5h-8.7v2.5h.9v1.5h-4.6l-3.2,5.5,3.2,5.5h7.1l3.6-8.5h3.9l1.7,3-1.4,2.4-1.8-4.2h-1.5l-.6,1.4,3,7h-14.8l-.3.8,1.1,1.7h15.9l1.1-1.7-.9-2.2,3.1-5.3h0Z"/>
    <path fill="#fff" d="M-32.3.8l-1.6,1.6,1.6,1.6,1.6-1.6-1.6-1.6h0Z"/>
    <path fill="#fff" d="M-28.7,0l-1.2,1.2,1.2,1.2,1.2-1.2-1.2-1.2Z"/>
  </g>
  <g>
    <path fill="#fff" d="M15.5,9.8l-2.1-3.7h-4.7l-2.5,5.6h-2.6l-1.1-2,1.1-2h1.3l-1.1,2.7.3.5h1.3l2-4.7v-1.1h3.5v-1.7h-5.8v1.7h.6v1h-3.1l-2.1,3.7,2.1,3.7h4.8l2.4-5.6h2.6l1.1,2-.9,1.6-1.2-2.8h-1l-.4,1,2,4.7H2.2l-.2.5.8,1.2h10.6l.8-1.2-.6-1.5,2-3.5h0Z"/>
    <path fill="#fff" d="M7,.5l-1.1,1.1,1.1,1.1,1.1-1.1-1.1-1.1h0Z"/>
    <path fill="#fff" d="M9.3,0l-.8.8.8.8.8-.8-.8-.8Z"/>
  </g>
</svg>
