<svg width="223" height="32" viewBox="0 0 223 32" fill="none" xmlns="http://www.w3.org/2000/svg">
<path d="M36.7189 13.3273H39.267V23.6378H43.5939V26.0558H36.7189V13.3273Z" fill="white"/>
<path d="M54.6801 21.1087C54.6782 22.13 54.3745 23.128 53.807 23.9772C53.2395 24.8264 52.4337 25.4889 51.4908 25.8814C50.5479 26.2739 49.51 26.3789 48.5075 26.1832C47.5051 25.9875 46.5829 25.4998 45.8569 24.7815C45.1308 24.0631 44.6334 23.1462 44.427 22.1459C44.2206 21.1456 44.3145 20.1067 44.697 19.1596C45.0794 18.2126 45.7332 17.3997 46.5763 16.8232C47.4194 16.2467 48.4141 15.9323 49.4354 15.9196C50.1231 15.9062 50.8066 16.0309 51.4453 16.2863C52.084 16.5416 52.665 16.9224 53.1539 17.4062C53.6429 17.89 54.0299 18.4669 54.292 19.1029C54.5542 19.7388 54.6861 20.4209 54.6801 21.1087V21.1087ZM46.8127 21.1087C46.8127 22.7826 47.8729 23.9727 49.4728 23.9727C49.8423 23.9793 50.2092 23.9091 50.5502 23.7667C50.8913 23.6243 51.1991 23.4127 51.4542 23.1453C51.7093 22.8779 51.9062 22.5604 52.0324 22.2131C52.1587 21.8657 52.2115 21.496 52.1876 21.1271C52.1876 19.4533 51.0907 18.2631 49.4727 18.2631C49.1077 18.264 48.7468 18.3396 48.4121 18.4853C48.0775 18.6311 47.7763 18.8438 47.527 19.1104C47.2778 19.3771 47.0858 19.6919 46.963 20.0356C46.8401 20.3793 46.789 20.7445 46.8127 21.1087V21.1087Z" fill="white"/>
<path d="M66.1207 21.1087C66.1188 22.13 65.815 23.128 65.2476 23.9772C64.6801 24.8264 63.8743 25.4889 62.9313 25.8814C61.9884 26.2739 60.9505 26.3789 59.9481 26.1832C58.9457 25.9875 58.0235 25.4998 57.2974 24.7815C56.5714 24.0631 56.0739 23.1462 55.8675 22.1459C55.6612 21.1456 55.7551 20.1067 56.1375 19.1596C56.5199 18.2126 57.1738 17.3997 58.0169 16.8232C58.86 16.2467 59.8547 15.9323 60.876 15.9196C61.5637 15.9062 62.2471 16.0309 62.8858 16.2862C63.5245 16.5416 64.1055 16.9224 64.5945 17.4062C65.0835 17.89 65.4705 18.4669 65.7326 19.1029C65.9948 19.7388 66.1267 20.4209 66.1207 21.1087V21.1087ZM58.2533 21.1087C58.2533 22.7826 59.3135 23.9727 60.9134 23.9727C61.2829 23.9793 61.6498 23.9091 61.9909 23.7667C62.3319 23.6243 62.6398 23.4127 62.8949 23.1453C63.15 22.8778 63.3469 22.5604 63.4732 22.213C63.5994 21.8657 63.6522 21.4959 63.6283 21.127C63.6283 19.4532 62.5315 18.263 60.9134 18.263C60.5484 18.2639 60.1874 18.3395 59.8528 18.4852C59.5181 18.6309 59.2169 18.8437 58.9676 19.1103C58.7184 19.377 58.5264 19.6918 58.4036 20.0355C58.2807 20.3792 58.2296 20.7445 58.2533 21.1087V21.1087Z" fill="white"/>
<path d="M70.141 17.2584C70.5391 16.8341 71.0203 16.4962 71.5547 16.2659C72.089 16.0356 72.6651 15.9177 73.247 15.9196C75.7944 15.9196 77.9148 18.0394 77.9148 21.127C77.9148 24.1585 75.7016 26.3162 73.1907 26.3162C72.62 26.3216 72.0544 26.2086 71.5294 25.9845C71.0045 25.7604 70.5318 25.4299 70.141 25.014V29.6641H67.6668V16.1801H70.141V17.2584ZM70.029 21.0898C70.029 22.8753 71.2193 24.0473 72.7445 24.0473C74.2881 24.0473 75.4228 22.8007 75.4228 21.1087C75.4228 19.4906 74.381 18.1885 72.7445 18.1885C71.1638 18.1885 70.0291 19.3605 70.0291 21.0898L70.029 21.0898Z" fill="white"/>
<path d="M79.4982 12.9922H81.9717V17.1834C82.7523 16.411 83.7945 15.9598 84.892 15.9191C86.7514 15.9191 88.2766 17.1278 88.2766 19.5268V26.0554H85.8031V21.3869C85.8031 19.3783 85.5612 18.188 84.1105 18.188C83.7716 18.1905 83.4392 18.281 83.1458 18.4505C82.8524 18.6201 82.608 18.8629 82.4366 19.1553C81.9343 19.9362 81.9716 20.8291 81.9716 21.8519V26.0554H79.4981L79.4982 12.9922Z" fill="white"/>
<path d="M100.071 21.1087C100.069 22.13 99.7651 23.128 99.1976 23.9772C98.6302 24.8264 97.8243 25.4889 96.8814 25.8814C95.9385 26.2739 94.9006 26.3789 93.8982 26.1832C92.8957 25.9875 91.9735 25.4998 91.2475 24.7815C90.5215 24.0631 90.024 23.1462 89.8176 22.1459C89.6112 21.1456 89.7052 20.1067 90.0876 19.1596C90.47 18.2126 91.1239 17.3997 91.967 16.8232C92.8101 16.2467 93.8048 15.9323 94.826 15.9196C95.5137 15.9062 96.1972 16.0309 96.8359 16.2862C97.4746 16.5416 98.0556 16.9224 98.5446 17.4062C99.0335 17.89 99.4205 18.4669 99.6827 19.1029C99.9448 19.7388 100.077 20.4209 100.071 21.1087V21.1087ZM92.2034 21.1087C92.2034 22.7826 93.2636 23.9727 94.8635 23.9727C95.233 23.9793 95.5999 23.9091 95.941 23.7667C96.282 23.6243 96.5898 23.4127 96.845 23.1453C97.1001 22.8778 97.297 22.5604 97.4232 22.213C97.5495 21.8657 97.6023 21.4959 97.5784 21.127C97.5784 19.4532 96.4816 18.263 94.8635 18.263C94.4985 18.2639 94.1375 18.3395 93.8028 18.4852C93.4682 18.6309 93.167 18.8437 92.9177 19.1103C92.6685 19.377 92.4765 19.6918 92.3536 20.0355C92.2308 20.3792 92.1796 20.7445 92.2034 21.1087V21.1087Z" fill="white"/>
<path d="M101.375 12.9922H103.849V26.0554H101.375V12.9922Z" fill="white"/>
<path d="M114.878 24.14C113.818 25.6462 112.423 26.316 110.34 26.316C109.651 26.3401 108.965 26.2216 108.325 25.9679C107.684 25.7142 107.103 25.3309 106.617 24.8419C106.132 24.3529 105.752 23.7689 105.503 23.1264C105.254 22.4839 105.141 21.7969 105.17 21.1085C105.151 20.4265 105.27 19.7477 105.52 19.1131C105.771 18.4785 106.147 17.9013 106.627 17.4163C107.107 16.9313 107.68 16.5486 108.312 16.2913C108.944 16.034 109.621 15.9075 110.303 15.9194C113.428 15.9194 115.548 18.151 115.548 21.2759C115.548 21.499 115.529 21.6102 115.529 21.8338H107.569C107.657 22.4942 107.992 23.0968 108.506 23.521C109.02 23.9452 109.675 24.1597 110.34 24.1216C110.794 24.1443 111.249 24.0698 111.672 23.903C112.095 23.7362 112.478 23.4809 112.795 23.1543L114.878 24.14ZM113.056 19.8806C112.85 19.3341 112.482 18.8632 112.002 18.5309C111.522 18.1985 110.952 18.0204 110.368 18.0204C109.784 18.0204 109.214 18.1985 108.734 18.5309C108.254 18.8632 107.886 19.3341 107.681 19.8806H113.056Z" fill="white"/>
<path d="M122.08 13.3273H124.628V23.6378H128.955V26.0558H122.08V13.3273Z" fill="white"/>
<path d="M137.456 25.014C137.066 25.4314 136.594 25.7628 136.069 25.987C135.544 26.2112 134.977 26.3233 134.406 26.3162C131.895 26.3162 129.701 24.1585 129.701 21.127C129.701 18.0394 131.784 15.9196 134.35 15.9196C134.932 15.9178 135.508 16.0357 136.042 16.266C136.577 16.4963 137.058 16.8341 137.456 17.2584V16.1801H139.93V26.0558H137.456V25.014ZM132.192 21.1087C132.192 22.8007 133.309 24.0473 134.853 24.0473C136.378 24.0473 137.568 22.8942 137.568 21.0898C137.568 19.3605 136.415 18.1885 134.853 18.1885C133.216 18.1885 132.192 19.4906 132.192 21.1087H132.192Z" fill="white"/>
<path d="M144.433 26.0554H141.959V12.9922H144.433V17.2579C144.831 16.8336 145.313 16.4958 145.847 16.2654C146.381 16.0351 146.957 15.9172 147.539 15.9191C150.087 15.9191 152.207 18.0389 152.207 21.1265C152.207 24.158 149.994 26.3157 147.483 26.3157C146.912 26.3211 146.347 26.2081 145.822 25.984C145.297 25.7599 144.824 25.4295 144.433 25.0135V26.0554ZM144.321 21.0893C144.321 22.8748 145.512 24.0468 147.037 24.0468C148.58 24.0468 149.715 22.8002 149.715 21.1082C149.715 19.4902 148.673 18.188 147.037 18.188C145.456 18.188 144.321 19.36 144.321 21.0893L144.321 21.0893Z" fill="white"/>
<path d="M155.744 21.7775C154.163 20.9783 153.363 20.011 153.363 18.765C153.363 17.2209 154.665 15.9193 156.562 15.9193C157.195 15.9163 157.82 16.063 158.385 16.3474C158.951 16.6318 159.441 17.0459 159.816 17.5559L158.292 19.0993C157.865 18.5809 157.249 18.2532 156.58 18.1883C156.079 18.1883 155.687 18.393 155.687 18.7834C155.687 19.1556 156.041 19.323 156.58 19.6017L157.492 20.0667C159.128 20.9036 160.003 21.7593 160.003 23.2283C160.003 24.9955 158.608 26.316 156.45 26.316C155.78 26.3326 155.115 26.1874 154.513 25.8927C153.911 25.5981 153.389 25.1627 152.991 24.6233L154.516 22.9495C155.024 23.5916 155.767 24.0062 156.58 24.1026C157.194 24.1026 157.678 23.7494 157.678 23.3027C157.678 22.8749 157.269 22.559 156.58 22.2052L155.744 21.7775Z" fill="white"/>
<path d="M28.7726 19.5786L24.7611 12.6315H15.8438L11.1761 23.3624H6.17474L3.99018 19.5786L6.17474 15.7953H8.70474L6.55003 20.849L7.08791 21.7802H9.59286L13.3847 12.8858V10.7332H18.8887H20.0716V7.56937H9.03792V10.7332H10.2208V12.2392L10.054 12.6315H4.34787L0.336975 19.5786L4.34787 26.5263H13.3847L17.9329 15.7953H22.9348L25.1194 19.5786L23.3351 22.6689L21.0791 17.377H19.191L18.4212 19.2097L22.2146 28.1079H3.4555L3.04556 29.0696L4.50034 31.2718H24.6092L26.064 29.0696L24.8869 26.3088L28.7726 19.5786Z" fill="white"/>
<path d="M12.5693 1.84461L10.5356 3.87833L12.5693 5.91208L14.603 3.87836L12.5693 1.84461Z" fill="white"/>
<path d="M17.0647 0.859411L15.5551 2.36893L17.0647 3.87844L18.5742 2.36893L17.0647 0.859411Z" fill="white"/>
<path d="M218.12 21.9336C216.593 21.1618 215.821 20.2278 215.821 19.0247C215.821 17.5336 217.078 16.2768 218.91 16.2768C219.521 16.2739 220.124 16.4155 220.671 16.6902C221.217 16.9648 221.69 17.3646 222.052 17.8571L220.58 19.3475C220.168 18.8469 219.573 18.5304 218.928 18.4678C218.443 18.4678 218.065 18.6655 218.065 19.0425C218.065 19.4018 218.407 19.5635 218.928 19.8326L219.808 20.2816C221.388 21.0897 222.232 21.916 222.232 23.3345C222.232 25.0409 220.885 26.316 218.802 26.316C218.155 26.332 217.513 26.1918 216.932 25.9073C216.35 25.6228 215.846 25.2023 215.461 24.6816L216.934 23.0652C217.425 23.6853 218.142 24.0857 218.927 24.1787C219.52 24.1787 219.987 23.8376 219.987 23.4063C219.987 22.9933 219.592 22.6882 218.927 22.3466L218.12 21.9336Z" fill="white"/>
<path d="M204.449 21.297C204.449 20.3565 204.656 19.5076 205.072 18.7502C205.487 17.9807 206.061 17.3761 206.794 16.9363C207.527 16.4966 208.351 16.2767 209.267 16.2767C210.208 16.2767 211.008 16.4661 211.668 16.8447C212.339 17.2234 212.852 17.6998 213.207 18.2739C213.573 18.848 213.787 19.4282 213.848 20.0145H211.173C211.075 19.5992 210.849 19.2572 210.495 18.9884C210.141 18.7197 209.725 18.5853 209.249 18.5853C208.565 18.5853 208.028 18.8357 207.637 19.3366C207.246 19.8251 207.05 20.4786 207.05 21.297C207.05 22.1154 207.246 22.775 207.637 23.2758C208.028 23.7644 208.565 24.0087 209.249 24.0087C209.725 24.0087 210.141 23.8744 210.495 23.6056C210.849 23.3369 211.075 22.9949 211.173 22.5796H213.848C213.787 23.1659 213.573 23.7461 213.207 24.3202C212.852 24.8943 212.339 25.3707 211.668 25.7493C211.008 26.128 210.208 26.3173 209.267 26.3173C208.351 26.3173 207.527 26.0975 206.794 25.6577C206.061 25.218 205.487 24.6195 205.072 23.8622C204.656 23.0926 204.449 22.2376 204.449 21.297Z" fill="white"/>
<path d="M203.252 21.3065C203.251 22.2963 202.956 23.2635 202.406 24.0864C201.856 24.9094 201.075 25.5514 200.162 25.9318C199.248 26.3122 198.242 26.4139 197.271 26.2242C196.299 26.0346 195.405 25.562 194.702 24.8658C193.998 24.1697 193.516 23.281 193.316 22.3117C193.116 21.3423 193.207 20.3354 193.578 19.4176C193.948 18.4998 194.582 17.7121 195.399 17.1534C196.216 16.5947 197.18 16.2901 198.17 16.2777C198.836 16.2648 199.499 16.3856 200.118 16.633C200.736 16.8805 201.3 17.2496 201.773 17.7184C202.247 18.1872 202.622 18.7463 202.876 19.3626C203.13 19.9789 203.258 20.6399 203.252 21.3065V21.3065ZM195.628 21.3065C195.628 22.9287 196.656 24.0821 198.206 24.0821C198.564 24.0884 198.92 24.0204 199.25 23.8824C199.581 23.7444 199.879 23.5393 200.126 23.2802C200.374 23.021 200.564 22.7134 200.687 22.3767C200.809 22.0401 200.86 21.6817 200.837 21.3243C200.837 19.7021 199.774 18.5487 198.206 18.5487C197.852 18.5496 197.502 18.6228 197.178 18.7641C196.854 18.9053 196.562 19.1115 196.32 19.3699C196.079 19.6283 195.893 19.9334 195.774 20.2665C195.655 20.5996 195.605 20.9535 195.628 21.3065V21.3065Z" fill="white"/>
<path d="M180.312 26.0975V13.0887H184.984C186.425 13.0887 187.659 13.3635 188.685 13.9132C189.723 14.4628 190.505 15.2324 191.03 16.2218C191.568 17.1989 191.836 18.3227 191.836 19.5931C191.836 20.8634 191.568 21.9933 191.03 22.9827C190.505 23.9599 189.723 24.7233 188.685 25.273C187.659 25.8226 186.425 26.0975 184.984 26.0975H180.312ZM189.015 19.5931C189.015 18.3227 188.673 17.3333 187.989 16.6249C187.317 15.9042 186.291 15.5438 184.911 15.5438H182.987V23.6423H184.911C186.291 23.6423 187.317 23.288 187.989 22.5796C188.673 21.8589 189.015 20.8634 189.015 19.5931Z" fill="white"/>
<path d="M171.408 29.306H168.807V10.0021H171.408V29.306Z" fill="white"/>
</svg>
